<mxfile host="app.diagrams.net" agent="Mozilla/5.0 (Windows NT 10.0; Win64; x64) AppleWebKit/537.36 (KHTML, like Gecko) Chrome/128.0.0.0 Safari/537.36 OPR/114.0.0.0" version="24.7.17">
  <diagram id="C5RBs43oDa-KdzZeNtuy" name="Page-1">
    <mxGraphModel dx="1497" dy="1826" grid="1" gridSize="10" guides="1" tooltips="1" connect="1" arrows="1" fold="1" page="1" pageScale="1" pageWidth="827" pageHeight="1169" math="0" shadow="0">
      <root>
        <mxCell id="WIyWlLk6GJQsqaUBKTNV-0" />
        <mxCell id="WIyWlLk6GJQsqaUBKTNV-1" parent="WIyWlLk6GJQsqaUBKTNV-0" />
        <mxCell id="2OrNK8mpPRDFsgGdynJt-57" style="edgeStyle=orthogonalEdgeStyle;rounded=0;orthogonalLoop=1;jettySize=auto;html=1;exitX=0;exitY=0.5;exitDx=0;exitDy=0;entryX=0;entryY=0.5;entryDx=0;entryDy=0;" edge="1" parent="WIyWlLk6GJQsqaUBKTNV-1" source="zkfFHV4jXpPFQw0GAbJ--0" target="2OrNK8mpPRDFsgGdynJt-16">
          <mxGeometry relative="1" as="geometry" />
        </mxCell>
        <mxCell id="zkfFHV4jXpPFQw0GAbJ--0" value="Autor" style="swimlane;fontStyle=2;align=center;verticalAlign=top;childLayout=stackLayout;horizontal=1;startSize=26;horizontalStack=0;resizeParent=1;resizeLast=0;collapsible=1;marginBottom=0;rounded=0;shadow=0;strokeWidth=1;" parent="WIyWlLk6GJQsqaUBKTNV-1" vertex="1">
          <mxGeometry x="270" y="670" width="160" height="190" as="geometry">
            <mxRectangle x="270" y="670" width="160" height="26" as="alternateBounds" />
          </mxGeometry>
        </mxCell>
        <mxCell id="zkfFHV4jXpPFQw0GAbJ--1" value="Id_autor&#xa;nombre_autor&#xa;biografia_autor&#xa;foto_autor&#xa;seudonimo_autor&#xa;fecha_nac&#xa;fecha_def" style="text;align=left;verticalAlign=top;spacingLeft=4;spacingRight=4;overflow=hidden;rotatable=0;points=[[0,0.5],[1,0.5]];portConstraint=eastwest;" parent="zkfFHV4jXpPFQw0GAbJ--0" vertex="1">
          <mxGeometry y="26" width="160" height="114" as="geometry" />
        </mxCell>
        <mxCell id="zkfFHV4jXpPFQw0GAbJ--4" value="" style="line;html=1;strokeWidth=1;align=left;verticalAlign=middle;spacingTop=-1;spacingLeft=3;spacingRight=3;rotatable=0;labelPosition=right;points=[];portConstraint=eastwest;" parent="zkfFHV4jXpPFQw0GAbJ--0" vertex="1">
          <mxGeometry y="140" width="160" height="8" as="geometry" />
        </mxCell>
        <mxCell id="zkfFHV4jXpPFQw0GAbJ--5" value="info()&#xa;convertir_formato()" style="text;align=left;verticalAlign=top;spacingLeft=4;spacingRight=4;overflow=hidden;rotatable=0;points=[[0,0.5],[1,0.5]];portConstraint=eastwest;" parent="zkfFHV4jXpPFQw0GAbJ--0" vertex="1">
          <mxGeometry y="148" width="160" height="42" as="geometry" />
        </mxCell>
        <mxCell id="2OrNK8mpPRDFsgGdynJt-0" value="biblioteca" style="swimlane;fontStyle=2;align=center;verticalAlign=top;childLayout=stackLayout;horizontal=1;startSize=26;horizontalStack=0;resizeParent=1;resizeLast=0;collapsible=1;marginBottom=0;rounded=0;shadow=0;strokeWidth=1;" vertex="1" parent="WIyWlLk6GJQsqaUBKTNV-1">
          <mxGeometry x="640" y="50" width="160" height="200" as="geometry">
            <mxRectangle x="620" y="500" width="160" height="26" as="alternateBounds" />
          </mxGeometry>
        </mxCell>
        <mxCell id="2OrNK8mpPRDFsgGdynJt-1" value="id_biblioteca&#xa;nombre_biblioteca&#xa;direccion_biblioteca&#xa;telefono_biblioteca" style="text;align=left;verticalAlign=top;spacingLeft=4;spacingRight=4;overflow=hidden;rotatable=0;points=[[0,0.5],[1,0.5]];portConstraint=eastwest;" vertex="1" parent="2OrNK8mpPRDFsgGdynJt-0">
          <mxGeometry y="26" width="160" height="84" as="geometry" />
        </mxCell>
        <mxCell id="2OrNK8mpPRDFsgGdynJt-2" value="" style="line;html=1;strokeWidth=1;align=left;verticalAlign=middle;spacingTop=-1;spacingLeft=3;spacingRight=3;rotatable=0;labelPosition=right;points=[];portConstraint=eastwest;" vertex="1" parent="2OrNK8mpPRDFsgGdynJt-0">
          <mxGeometry y="110" width="160" height="8" as="geometry" />
        </mxCell>
        <mxCell id="2OrNK8mpPRDFsgGdynJt-3" value="buscar_libro()&#xa;devolver_libro()&#xa;prestar_libro()&#xa;info()" style="text;align=left;verticalAlign=top;spacingLeft=4;spacingRight=4;overflow=hidden;rotatable=0;points=[[0,0.5],[1,0.5]];portConstraint=eastwest;" vertex="1" parent="2OrNK8mpPRDFsgGdynJt-0">
          <mxGeometry y="118" width="160" height="82" as="geometry" />
        </mxCell>
        <mxCell id="2OrNK8mpPRDFsgGdynJt-4" value="Categoria_libro" style="swimlane;fontStyle=2;align=center;verticalAlign=top;childLayout=stackLayout;horizontal=1;startSize=26;horizontalStack=0;resizeParent=1;resizeLast=0;collapsible=1;marginBottom=0;rounded=0;shadow=0;strokeWidth=1;" vertex="1" parent="WIyWlLk6GJQsqaUBKTNV-1">
          <mxGeometry x="290" y="258" width="160" height="104" as="geometry">
            <mxRectangle x="360" y="750" width="160" height="26" as="alternateBounds" />
          </mxGeometry>
        </mxCell>
        <mxCell id="2OrNK8mpPRDFsgGdynJt-5" value="id_categoria&#xa;nombre_categoria" style="text;align=left;verticalAlign=top;spacingLeft=4;spacingRight=4;overflow=hidden;rotatable=0;points=[[0,0.5],[1,0.5]];portConstraint=eastwest;" vertex="1" parent="2OrNK8mpPRDFsgGdynJt-4">
          <mxGeometry y="26" width="160" height="44" as="geometry" />
        </mxCell>
        <mxCell id="2OrNK8mpPRDFsgGdynJt-6" value="" style="line;html=1;strokeWidth=1;align=left;verticalAlign=middle;spacingTop=-1;spacingLeft=3;spacingRight=3;rotatable=0;labelPosition=right;points=[];portConstraint=eastwest;" vertex="1" parent="2OrNK8mpPRDFsgGdynJt-4">
          <mxGeometry y="70" width="160" height="8" as="geometry" />
        </mxCell>
        <mxCell id="2OrNK8mpPRDFsgGdynJt-7" value="consulta_categoria()" style="text;align=left;verticalAlign=top;spacingLeft=4;spacingRight=4;overflow=hidden;rotatable=0;points=[[0,0.5],[1,0.5]];portConstraint=eastwest;" vertex="1" parent="2OrNK8mpPRDFsgGdynJt-4">
          <mxGeometry y="78" width="160" height="26" as="geometry" />
        </mxCell>
        <mxCell id="2OrNK8mpPRDFsgGdynJt-8" value="Detalle_libro" style="swimlane;fontStyle=2;align=center;verticalAlign=top;childLayout=stackLayout;horizontal=1;startSize=26;horizontalStack=0;resizeParent=1;resizeLast=0;collapsible=1;marginBottom=0;rounded=0;shadow=0;strokeWidth=1;" vertex="1" parent="WIyWlLk6GJQsqaUBKTNV-1">
          <mxGeometry x="290" y="40" width="160" height="200" as="geometry">
            <mxRectangle x="300" y="18" width="160" height="26" as="alternateBounds" />
          </mxGeometry>
        </mxCell>
        <mxCell id="2OrNK8mpPRDFsgGdynJt-9" value="id_detalle_libro&#xa;fecha_edicion&#xa;numero_paginas&#xa;id_categoria_libro&#xa;cantidad_ejemplares&#xa;ejemplares_disponibles" style="text;align=left;verticalAlign=top;spacingLeft=4;spacingRight=4;overflow=hidden;rotatable=0;points=[[0,0.5],[1,0.5]];portConstraint=eastwest;" vertex="1" parent="2OrNK8mpPRDFsgGdynJt-8">
          <mxGeometry y="26" width="160" height="114" as="geometry" />
        </mxCell>
        <mxCell id="2OrNK8mpPRDFsgGdynJt-10" value="" style="line;html=1;strokeWidth=1;align=left;verticalAlign=middle;spacingTop=-1;spacingLeft=3;spacingRight=3;rotatable=0;labelPosition=right;points=[];portConstraint=eastwest;" vertex="1" parent="2OrNK8mpPRDFsgGdynJt-8">
          <mxGeometry y="140" width="160" height="8" as="geometry" />
        </mxCell>
        <mxCell id="2OrNK8mpPRDFsgGdynJt-11" value="info()&#xa;actualizar_disponibilidad" style="text;align=left;verticalAlign=top;spacingLeft=4;spacingRight=4;overflow=hidden;rotatable=0;points=[[0,0.5],[1,0.5]];portConstraint=eastwest;" vertex="1" parent="2OrNK8mpPRDFsgGdynJt-8">
          <mxGeometry y="148" width="160" height="42" as="geometry" />
        </mxCell>
        <mxCell id="2OrNK8mpPRDFsgGdynJt-12" value="Editorial" style="swimlane;fontStyle=2;align=center;verticalAlign=top;childLayout=stackLayout;horizontal=1;startSize=26;horizontalStack=0;resizeParent=1;resizeLast=0;collapsible=1;marginBottom=0;rounded=0;shadow=0;strokeWidth=1;" vertex="1" parent="WIyWlLk6GJQsqaUBKTNV-1">
          <mxGeometry x="30" y="670" width="160" height="170" as="geometry">
            <mxRectangle x="40" y="696" width="160" height="26" as="alternateBounds" />
          </mxGeometry>
        </mxCell>
        <mxCell id="2OrNK8mpPRDFsgGdynJt-13" value="id_editorial&#xa;nombre_editorial&#xa;fecha_fundacion&#xa;cod_pais&#xa;telefono_editorial&#xa;correo_editorial" style="text;align=left;verticalAlign=top;spacingLeft=4;spacingRight=4;overflow=hidden;rotatable=0;points=[[0,0.5],[1,0.5]];portConstraint=eastwest;" vertex="1" parent="2OrNK8mpPRDFsgGdynJt-12">
          <mxGeometry y="26" width="160" height="94" as="geometry" />
        </mxCell>
        <mxCell id="2OrNK8mpPRDFsgGdynJt-14" value="" style="line;html=1;strokeWidth=1;align=left;verticalAlign=middle;spacingTop=-1;spacingLeft=3;spacingRight=3;rotatable=0;labelPosition=right;points=[];portConstraint=eastwest;" vertex="1" parent="2OrNK8mpPRDFsgGdynJt-12">
          <mxGeometry y="120" width="160" height="8" as="geometry" />
        </mxCell>
        <mxCell id="2OrNK8mpPRDFsgGdynJt-15" value="validar_correo()&#xa;info()" style="text;align=left;verticalAlign=top;spacingLeft=4;spacingRight=4;overflow=hidden;rotatable=0;points=[[0,0.5],[1,0.5]];portConstraint=eastwest;" vertex="1" parent="2OrNK8mpPRDFsgGdynJt-12">
          <mxGeometry y="128" width="160" height="42" as="geometry" />
        </mxCell>
        <mxCell id="2OrNK8mpPRDFsgGdynJt-16" value="Libro" style="swimlane;fontStyle=2;align=center;verticalAlign=top;childLayout=stackLayout;horizontal=1;startSize=26;horizontalStack=0;resizeParent=1;resizeLast=0;collapsible=1;marginBottom=0;rounded=0;shadow=0;strokeWidth=1;" vertex="1" parent="WIyWlLk6GJQsqaUBKTNV-1">
          <mxGeometry x="270" y="420" width="160" height="180" as="geometry">
            <mxRectangle x="300" y="232" width="160" height="26" as="alternateBounds" />
          </mxGeometry>
        </mxCell>
        <mxCell id="2OrNK8mpPRDFsgGdynJt-17" value="Título&#xa;ISBN&#xa;Id_autor&#xa;id_detalle_libro&#xa;id_tipo_categoria&#xa;id_editorial" style="text;align=left;verticalAlign=top;spacingLeft=4;spacingRight=4;overflow=hidden;rotatable=0;points=[[0,0.5],[1,0.5]];portConstraint=eastwest;" vertex="1" parent="2OrNK8mpPRDFsgGdynJt-16">
          <mxGeometry y="26" width="160" height="104" as="geometry" />
        </mxCell>
        <mxCell id="2OrNK8mpPRDFsgGdynJt-18" value="" style="line;html=1;strokeWidth=1;align=left;verticalAlign=middle;spacingTop=-1;spacingLeft=3;spacingRight=3;rotatable=0;labelPosition=right;points=[];portConstraint=eastwest;" vertex="1" parent="2OrNK8mpPRDFsgGdynJt-16">
          <mxGeometry y="130" width="160" height="8" as="geometry" />
        </mxCell>
        <mxCell id="2OrNK8mpPRDFsgGdynJt-19" value="validar_ISBN&#xa;info()" style="text;align=left;verticalAlign=top;spacingLeft=4;spacingRight=4;overflow=hidden;rotatable=0;points=[[0,0.5],[1,0.5]];portConstraint=eastwest;" vertex="1" parent="2OrNK8mpPRDFsgGdynJt-16">
          <mxGeometry y="138" width="160" height="42" as="geometry" />
        </mxCell>
        <mxCell id="2OrNK8mpPRDFsgGdynJt-20" value="Paises" style="swimlane;fontStyle=2;align=center;verticalAlign=top;childLayout=stackLayout;horizontal=1;startSize=26;horizontalStack=0;resizeParent=1;resizeLast=0;collapsible=1;marginBottom=0;rounded=0;shadow=0;strokeWidth=1;" vertex="1" parent="WIyWlLk6GJQsqaUBKTNV-1">
          <mxGeometry x="30" y="490" width="160" height="148" as="geometry">
            <mxRectangle x="30" y="490" width="160" height="26" as="alternateBounds" />
          </mxGeometry>
        </mxCell>
        <mxCell id="2OrNK8mpPRDFsgGdynJt-21" value="cod_pais&#xa;nombre_pais&#xa;gentilicio_pais&#xa;cod_iso&#xa;" style="text;align=left;verticalAlign=top;spacingLeft=4;spacingRight=4;overflow=hidden;rotatable=0;points=[[0,0.5],[1,0.5]];portConstraint=eastwest;" vertex="1" parent="2OrNK8mpPRDFsgGdynJt-20">
          <mxGeometry y="26" width="160" height="84" as="geometry" />
        </mxCell>
        <mxCell id="2OrNK8mpPRDFsgGdynJt-22" value="" style="line;html=1;strokeWidth=1;align=left;verticalAlign=middle;spacingTop=-1;spacingLeft=3;spacingRight=3;rotatable=0;labelPosition=right;points=[];portConstraint=eastwest;" vertex="1" parent="2OrNK8mpPRDFsgGdynJt-20">
          <mxGeometry y="110" width="160" height="8" as="geometry" />
        </mxCell>
        <mxCell id="2OrNK8mpPRDFsgGdynJt-41" value="&amp;nbsp;info()" style="text;html=1;align=left;verticalAlign=middle;resizable=0;points=[];autosize=1;strokeColor=none;fillColor=none;" vertex="1" parent="2OrNK8mpPRDFsgGdynJt-20">
          <mxGeometry y="118" width="160" height="30" as="geometry" />
        </mxCell>
        <mxCell id="2OrNK8mpPRDFsgGdynJt-24" value="Prestamo" style="swimlane;fontStyle=2;align=center;verticalAlign=top;childLayout=stackLayout;horizontal=1;startSize=26;horizontalStack=0;resizeParent=1;resizeLast=0;collapsible=1;marginBottom=0;rounded=0;shadow=0;strokeWidth=1;" vertex="1" parent="WIyWlLk6GJQsqaUBKTNV-1">
          <mxGeometry x="290" y="-280" width="160" height="240" as="geometry">
            <mxRectangle x="880" y="146" width="160" height="26" as="alternateBounds" />
          </mxGeometry>
        </mxCell>
        <mxCell id="2OrNK8mpPRDFsgGdynJt-25" value="id_prestamo&#xa;id_detalle_libro&#xa;id_usuario&#xa;fecha_prestamo&#xa;fecha_devolucion&#xa;fecha_devuelto&#xa;cantida_solicitada" style="text;align=left;verticalAlign=top;spacingLeft=4;spacingRight=4;overflow=hidden;rotatable=0;points=[[0,0.5],[1,0.5]];portConstraint=eastwest;" vertex="1" parent="2OrNK8mpPRDFsgGdynJt-24">
          <mxGeometry y="26" width="160" height="144" as="geometry" />
        </mxCell>
        <mxCell id="2OrNK8mpPRDFsgGdynJt-26" value="" style="line;html=1;strokeWidth=1;align=left;verticalAlign=middle;spacingTop=-1;spacingLeft=3;spacingRight=3;rotatable=0;labelPosition=right;points=[];portConstraint=eastwest;" vertex="1" parent="2OrNK8mpPRDFsgGdynJt-24">
          <mxGeometry y="170" width="160" height="8" as="geometry" />
        </mxCell>
        <mxCell id="2OrNK8mpPRDFsgGdynJt-27" value="sumar_dias_laborales()&#xa;calcular_fecha()&#xa;marcar_devuelto()" style="text;align=left;verticalAlign=top;spacingLeft=4;spacingRight=4;overflow=hidden;rotatable=0;points=[[0,0.5],[1,0.5]];portConstraint=eastwest;" vertex="1" parent="2OrNK8mpPRDFsgGdynJt-24">
          <mxGeometry y="178" width="160" height="62" as="geometry" />
        </mxCell>
        <mxCell id="2OrNK8mpPRDFsgGdynJt-58" style="edgeStyle=orthogonalEdgeStyle;rounded=0;orthogonalLoop=1;jettySize=auto;html=1;exitX=0;exitY=0.5;exitDx=0;exitDy=0;entryX=1;entryY=0.5;entryDx=0;entryDy=0;" edge="1" parent="WIyWlLk6GJQsqaUBKTNV-1" source="2OrNK8mpPRDFsgGdynJt-28" target="2OrNK8mpPRDFsgGdynJt-16">
          <mxGeometry relative="1" as="geometry" />
        </mxCell>
        <mxCell id="2OrNK8mpPRDFsgGdynJt-28" value="Tipo_Categoria" style="swimlane;fontStyle=2;align=center;verticalAlign=top;childLayout=stackLayout;horizontal=1;startSize=26;horizontalStack=0;resizeParent=1;resizeLast=0;collapsible=1;marginBottom=0;rounded=0;shadow=0;strokeWidth=1;" vertex="1" parent="WIyWlLk6GJQsqaUBKTNV-1">
          <mxGeometry x="640" y="340" width="160" height="114" as="geometry">
            <mxRectangle x="710" y="340" width="160" height="26" as="alternateBounds" />
          </mxGeometry>
        </mxCell>
        <mxCell id="2OrNK8mpPRDFsgGdynJt-29" value="id_tipo_categoria&#xa;tipo_categoria" style="text;align=left;verticalAlign=top;spacingLeft=4;spacingRight=4;overflow=hidden;rotatable=0;points=[[0,0.5],[1,0.5]];portConstraint=eastwest;" vertex="1" parent="2OrNK8mpPRDFsgGdynJt-28">
          <mxGeometry y="26" width="160" height="54" as="geometry" />
        </mxCell>
        <mxCell id="2OrNK8mpPRDFsgGdynJt-30" value="" style="line;html=1;strokeWidth=1;align=left;verticalAlign=middle;spacingTop=-1;spacingLeft=3;spacingRight=3;rotatable=0;labelPosition=right;points=[];portConstraint=eastwest;" vertex="1" parent="2OrNK8mpPRDFsgGdynJt-28">
          <mxGeometry y="80" width="160" height="8" as="geometry" />
        </mxCell>
        <mxCell id="2OrNK8mpPRDFsgGdynJt-31" value="info()" style="text;align=left;verticalAlign=top;spacingLeft=4;spacingRight=4;overflow=hidden;rotatable=0;points=[[0,0.5],[1,0.5]];portConstraint=eastwest;" vertex="1" parent="2OrNK8mpPRDFsgGdynJt-28">
          <mxGeometry y="88" width="160" height="26" as="geometry" />
        </mxCell>
        <mxCell id="2OrNK8mpPRDFsgGdynJt-32" value="Tipo_Usuario" style="swimlane;fontStyle=2;align=center;verticalAlign=top;childLayout=stackLayout;horizontal=1;startSize=26;horizontalStack=0;resizeParent=1;resizeLast=0;collapsible=1;marginBottom=0;rounded=0;shadow=0;strokeWidth=1;" vertex="1" parent="WIyWlLk6GJQsqaUBKTNV-1">
          <mxGeometry x="50" y="320" width="160" height="124" as="geometry">
            <mxRectangle x="50" y="320" width="160" height="26" as="alternateBounds" />
          </mxGeometry>
        </mxCell>
        <mxCell id="2OrNK8mpPRDFsgGdynJt-33" value="id_tipo_usuario&#xa;tipo_usuario&#xa;descripcion_tipo_usuario" style="text;align=left;verticalAlign=top;spacingLeft=4;spacingRight=4;overflow=hidden;rotatable=0;points=[[0,0.5],[1,0.5]];portConstraint=eastwest;" vertex="1" parent="2OrNK8mpPRDFsgGdynJt-32">
          <mxGeometry y="26" width="160" height="64" as="geometry" />
        </mxCell>
        <mxCell id="2OrNK8mpPRDFsgGdynJt-34" value="" style="line;html=1;strokeWidth=1;align=left;verticalAlign=middle;spacingTop=-1;spacingLeft=3;spacingRight=3;rotatable=0;labelPosition=right;points=[];portConstraint=eastwest;" vertex="1" parent="2OrNK8mpPRDFsgGdynJt-32">
          <mxGeometry y="90" width="160" height="8" as="geometry" />
        </mxCell>
        <mxCell id="2OrNK8mpPRDFsgGdynJt-35" value="info()" style="text;align=left;verticalAlign=top;spacingLeft=4;spacingRight=4;overflow=hidden;rotatable=0;points=[[0,0.5],[1,0.5]];portConstraint=eastwest;" vertex="1" parent="2OrNK8mpPRDFsgGdynJt-32">
          <mxGeometry y="98" width="160" height="26" as="geometry" />
        </mxCell>
        <mxCell id="2OrNK8mpPRDFsgGdynJt-36" value="Usuario" style="swimlane;fontStyle=2;align=center;verticalAlign=top;childLayout=stackLayout;horizontal=1;startSize=26;horizontalStack=0;resizeParent=1;resizeLast=0;collapsible=1;marginBottom=0;rounded=0;shadow=0;strokeWidth=1;" vertex="1" parent="WIyWlLk6GJQsqaUBKTNV-1">
          <mxGeometry x="50" y="40" width="160" height="250" as="geometry">
            <mxRectangle x="90" y="10" width="160" height="26" as="alternateBounds" />
          </mxGeometry>
        </mxCell>
        <mxCell id="2OrNK8mpPRDFsgGdynJt-37" value="id_usuario&#xa;nombre_usuario&#xa;correo_usuario&#xa;telefono_usuario&#xa;rut_usuario&#xa;id_tipo_usuario&#xa;telefono_usuario&#xa;habilitado&#xa;fecha_creacion&#xa;" style="text;align=left;verticalAlign=top;spacingLeft=4;spacingRight=4;overflow=hidden;rotatable=0;points=[[0,0.5],[1,0.5]];portConstraint=eastwest;" vertex="1" parent="2OrNK8mpPRDFsgGdynJt-36">
          <mxGeometry y="26" width="160" height="154" as="geometry" />
        </mxCell>
        <mxCell id="2OrNK8mpPRDFsgGdynJt-38" value="" style="line;html=1;strokeWidth=1;align=left;verticalAlign=middle;spacingTop=-1;spacingLeft=3;spacingRight=3;rotatable=0;labelPosition=right;points=[];portConstraint=eastwest;" vertex="1" parent="2OrNK8mpPRDFsgGdynJt-36">
          <mxGeometry y="180" width="160" height="8" as="geometry" />
        </mxCell>
        <mxCell id="2OrNK8mpPRDFsgGdynJt-39" value="validar_rut()&#xa;validar_correo()&#xa;info()" style="text;align=left;verticalAlign=top;spacingLeft=4;spacingRight=4;overflow=hidden;rotatable=0;points=[[0,0.5],[1,0.5]];portConstraint=eastwest;" vertex="1" parent="2OrNK8mpPRDFsgGdynJt-36">
          <mxGeometry y="188" width="160" height="62" as="geometry" />
        </mxCell>
        <mxCell id="2OrNK8mpPRDFsgGdynJt-47" value="" style="endArrow=none;html=1;rounded=0;" edge="1" parent="WIyWlLk6GJQsqaUBKTNV-1">
          <mxGeometry width="50" height="50" relative="1" as="geometry">
            <mxPoint x="50" y="390" as="sourcePoint" />
            <mxPoint x="50" y="80" as="targetPoint" />
            <Array as="points">
              <mxPoint y="390" />
              <mxPoint y="240" />
              <mxPoint y="80" />
            </Array>
          </mxGeometry>
        </mxCell>
        <mxCell id="2OrNK8mpPRDFsgGdynJt-54" style="edgeStyle=orthogonalEdgeStyle;rounded=0;orthogonalLoop=1;jettySize=auto;html=1;exitX=0;exitY=0.5;exitDx=0;exitDy=0;entryX=0.996;entryY=0.365;entryDx=0;entryDy=0;entryPerimeter=0;" edge="1" parent="WIyWlLk6GJQsqaUBKTNV-1" source="2OrNK8mpPRDFsgGdynJt-25" target="2OrNK8mpPRDFsgGdynJt-9">
          <mxGeometry relative="1" as="geometry" />
        </mxCell>
        <mxCell id="2OrNK8mpPRDFsgGdynJt-55" style="edgeStyle=orthogonalEdgeStyle;rounded=0;orthogonalLoop=1;jettySize=auto;html=1;exitX=-0.004;exitY=0.293;exitDx=0;exitDy=0;exitPerimeter=0;entryX=1.01;entryY=0.575;entryDx=0;entryDy=0;entryPerimeter=0;" edge="1" parent="WIyWlLk6GJQsqaUBKTNV-1" source="2OrNK8mpPRDFsgGdynJt-29" target="2OrNK8mpPRDFsgGdynJt-9">
          <mxGeometry relative="1" as="geometry">
            <mxPoint x="510" y="170" as="targetPoint" />
          </mxGeometry>
        </mxCell>
        <mxCell id="2OrNK8mpPRDFsgGdynJt-56" style="edgeStyle=orthogonalEdgeStyle;rounded=0;orthogonalLoop=1;jettySize=auto;html=1;entryX=-0.004;entryY=0.699;entryDx=0;entryDy=0;entryPerimeter=0;" edge="1" parent="WIyWlLk6GJQsqaUBKTNV-1" source="2OrNK8mpPRDFsgGdynJt-21" target="2OrNK8mpPRDFsgGdynJt-13">
          <mxGeometry relative="1" as="geometry" />
        </mxCell>
        <mxCell id="2OrNK8mpPRDFsgGdynJt-59" style="edgeStyle=orthogonalEdgeStyle;rounded=0;orthogonalLoop=1;jettySize=auto;html=1;exitX=0;exitY=0.5;exitDx=0;exitDy=0;entryX=0.001;entryY=0.353;entryDx=0;entryDy=0;entryPerimeter=0;" edge="1" parent="WIyWlLk6GJQsqaUBKTNV-1" source="2OrNK8mpPRDFsgGdynJt-9" target="2OrNK8mpPRDFsgGdynJt-17">
          <mxGeometry relative="1" as="geometry" />
        </mxCell>
        <mxCell id="2OrNK8mpPRDFsgGdynJt-61" style="edgeStyle=orthogonalEdgeStyle;rounded=0;orthogonalLoop=1;jettySize=auto;html=1;exitX=1;exitY=0.5;exitDx=0;exitDy=0;entryX=1.003;entryY=0.846;entryDx=0;entryDy=0;entryPerimeter=0;" edge="1" parent="WIyWlLk6GJQsqaUBKTNV-1" source="2OrNK8mpPRDFsgGdynJt-5" target="2OrNK8mpPRDFsgGdynJt-9">
          <mxGeometry relative="1" as="geometry" />
        </mxCell>
        <mxCell id="2OrNK8mpPRDFsgGdynJt-62" style="edgeStyle=orthogonalEdgeStyle;rounded=0;orthogonalLoop=1;jettySize=auto;html=1;entryX=0;entryY=0.5;entryDx=0;entryDy=0;" edge="1" parent="WIyWlLk6GJQsqaUBKTNV-1" source="2OrNK8mpPRDFsgGdynJt-13" target="2OrNK8mpPRDFsgGdynJt-17">
          <mxGeometry relative="1" as="geometry" />
        </mxCell>
        <mxCell id="2OrNK8mpPRDFsgGdynJt-64" style="edgeStyle=orthogonalEdgeStyle;rounded=0;orthogonalLoop=1;jettySize=auto;html=1;entryX=1.02;entryY=0.168;entryDx=0;entryDy=0;entryPerimeter=0;" edge="1" parent="WIyWlLk6GJQsqaUBKTNV-1" source="2OrNK8mpPRDFsgGdynJt-25" target="2OrNK8mpPRDFsgGdynJt-37">
          <mxGeometry relative="1" as="geometry" />
        </mxCell>
      </root>
    </mxGraphModel>
  </diagram>
</mxfile>
